<?xml version="1.0" standalone="no"?><!DOCTYPE svg PUBLIC "-//W3C//DTD SVG 1.1//EN" "http://www.w3.org/Graphics/SVG/1.1/DTD/svg11.dtd"><svg t="1519892331298" class="icon" style="" viewBox="0 0 1024 1024" version="1.1" xmlns="http://www.w3.org/2000/svg" p-id="4876" xmlns:xlink="http://www.w3.org/1999/xlink" width="32" height="32"><defs><style type="text/css"></style></defs><path d="M298.84416 870.21568c-11.23328 0-21.97504-3.50208-31.06816-10.11712-18.55488-13.49632-26.2656-37.2224-19.18976-59.04384l69.5808-214.10816L136.0384 454.63552c-18.57536-13.5168-26.2656-37.25312-19.18976-59.05408 7.09632-21.85216 27.2896-36.51584 50.23744-36.51584l225.10592 0 69.56032-214.08768c7.10656-21.83168 27.29984-36.49536 50.23744-36.49536 22.95808 0 43.15136 14.67392 50.23744 36.49536L631.808 359.0656l225.09568 0c22.94784 0 43.14112 14.67392 50.2272 36.49536 7.09632 21.82144-0.62464 45.54752-19.15904 59.05408L705.8432 586.94656l69.56032 214.09792c7.08608 21.83168-0.62464 45.54752-19.16928 59.05408-18.16576 13.2096-43.97056 13.2096-62.12608 0L512 727.79776 329.8816 860.11904C320.79872 866.72384 310.0672 870.21568 298.84416 870.21568zM167.08608 404.34688c-3.2768 0-6.17472 2.0992-7.17824 5.2224-1.01376 3.11296 0.09216 6.51264 2.74432 8.43776L371.38432 569.6512l-79.72864 245.4016c-1.00352 3.11296 0.09216 6.51264 2.75456 8.43776 3.2768 2.38592 5.59104 2.38592 8.8576 0L512 671.81568l208.72192 151.66464c3.26656 2.38592 5.62176 2.37568 8.87808 0.01024 2.65216-1.92512 3.76832-5.33504 2.74432-8.45824L652.60544 569.6512l208.7424-151.6544c2.65216-1.92512 3.74784-5.3248 2.74432-8.43776-1.024-3.11296-3.91168-5.21216-7.17824-5.21216L598.90688 404.34688l-79.72864-245.37088c-2.02752-6.2464-12.32896-6.2464-14.36672 0l-79.7184 245.37088L167.08608 404.34688z" p-id="4877" fill="#333333"></path></svg>