<?xml version="1.0" standalone="no"?><!DOCTYPE svg PUBLIC "-//W3C//DTD SVG 1.1//EN" "http://www.w3.org/Graphics/SVG/1.1/DTD/svg11.dtd"><svg t="1519894152810" class="icon" style="" viewBox="0 0 1024 1024" version="1.1" xmlns="http://www.w3.org/2000/svg" p-id="1246" xmlns:xlink="http://www.w3.org/1999/xlink" width="32" height="32"><defs><style type="text/css"></style></defs><path d="M888.92416 458.96704 693.48352 600.95488l74.65984 229.75488c4.0448 12.4416-0.39936 26.0608-10.9568 33.75104-5.30432 3.84-11.52 5.76512-17.75616 5.76512s-12.46208-1.92512-17.73568-5.76512L526.26432 722.46272 330.84416 864.45056c-10.5984 7.69024-24.92416 7.69024-35.50208 0-10.55744-7.69024-15.0016-21.30944-10.9568-33.75104l74.63936-229.75488L163.60448 458.96704c-10.57792-7.69024-15.02208-21.30944-10.97728-33.75104 4.05504-12.4416 15.65696-20.85888 28.7232-20.85888l241.5616 0 74.63936-229.7344c4.0448-12.4416 15.63648-20.85888 28.7232-20.85888s24.65792 8.41728 28.70272 20.85888l74.63936 229.7344 241.58208 0c13.056 0 24.65792 8.41728 28.7232 20.85888C903.92576 437.6576 899.4816 451.2768 888.92416 458.96704z" p-id="1247" fill="#1296db"></path></svg>